# AST/ASF file generated using VICON BodyLanguage
# -----------------------------------------------
:version 1.10
:name VICON
:units
  mass 1.0
  length 0.45
  angle deg
:documentation
   .ast/.asf automatically generated from VICON data using
   VICON BodyBuilder and BodyLanguage model FoxedUp or BRILLIANT.MOD
:root
   order TX TY TZ RX RY RZ
   axis XYZ
   position 0 0 0  
   orientation 0 0 0 
:bonedata
  begin
     id 1 
     name lhipjoint
     direction 0.63403 -0.759788 0.143974 
     length 2.51904 
     axis 0 0 0  XYZ
  end
  begin
     id 2 
     name lfemur
     direction 0.34202 -0.939693 0  
     length 7.42313  
     axis 0 0 20  XYZ
    dof rx ry rz
    limits (-160.0 20.0)
           (-70.0 70.0)
           (-60.0 70.0)
  end
  begin
     id 3 
     name ltibia
     direction 0.34202 -0.939693 0   
     length 8.10141   
     axis 0 0 20   XYZ
    dof rx
    limits (-10.0 170.0)
  end
  begin
     id 4 
     name lfoot
     direction 0.0927455 -0.254816 0.962532   
     length 2.14078   
     axis -90 7.62852e-016 20   XYZ
    dof rx rz
    limits (-45.0 90.0)
           (-70.0 20.0)
  end
  begin
     id 5 
     name ltoes
     direction 1.53556e-011 -4.21949e-011 1   
     length 1.07182   
     axis -90 7.62852e-016 20   XYZ
    dof rx
    limits (-90.0 20.0)
  end
  begin
     id 6 
     name rhipjoint
     direction -0.659892 -0.738223 0.139888   
     length 2.59263  
     axis 0 0 0  XYZ 
  end
  begin
     id 7 
     name rfemur
     direction -0.34202 -0.939693 0   
     length 7.58575   
     axis 0 0 -20   XYZ
    dof rx ry rz
    limits (-160.0 20.0)
           (-70.0 70.0)
           (-70.0 60.0)
  end
  begin
     id 8 
     name rtibia
     direction -0.34202 -0.939693 0   
     length 8.19358   
     axis 0 0 -20   XYZ
    dof rx
    limits (-10.0 170.0)
 end
 begin
     id 9 
     name rfoot
     direction -0.0856543 -0.235333 0.968133   
     length 2.13415  
     axis -90 -7.62852e-016 -20   XYZ
    dof rx rz
    limits (-45.0 90.0)
           (-20.0 70.0)
  end
  begin
     id 10 
     name rtoes
     direction -1.53551e-011 -4.21811e-011 1   
     length 1.07055   
     axis -90 -7.62852e-016 -20   XYZ
    dof rx
    limits (-90.0 20.0)
  end
  begin
     id 11 
     name lowerback
     direction 0.025219 0.998394 -0.0507326   
     length 1.91844   
     axis 0 0 0   XYZ
    dof rx ry rz
    limits (-20.0 45.0)
           (-30.0 30.0)
           (-30.0 30.0)
  end
  begin
     id 12 
     name upperback
     direction 0.0213103 0.99967 -0.0143101   
     length 1.92246   
     axis 0 0 0   XYZ
    dof rx ry rz
    limits (-20.0 45.0)
           (-30.0 30.0)
           (-30.0 30.0)
  end
  begin
     id 13 
     name thorax
     direction 0.00920974 0.99991 0.00971518   
     length 1.92239   
     axis 0 0 0   XYZ
    dof rx ry rz
    limits (-20.0 45.0)
           (-30.0 30.0)
           (-30.0 30.0)
  end
  begin
     id 14 
     name lowerneck
     direction 0.0598257 0.997249 0.0437612   
     length 3.13679   
     axis 0 0 0   XYZ
    dof rx ry rz
    limits (-20.0 45.0)
           (-30.0 30.0)
           (-30.0 30.0)
  end
  begin
     id 15 
     name upperneck
     direction -0.035342 0.999338 0.00863891   
     length 3.16283   
     axis 0 0 0   XYZ
    dof rx ry rz
    limits (-20.0 45.0)
           (-30.0 30.0)
           (-30.0 30.0)
  end
  begin
     id 16
     name head
     direction 0.37144 0.811566 0.450991  
     length 1.2838  
     axis 0 0 0   XYZ
    dof rx ry rz
    limits (-20.0 45.0)
           (-30.0 30.0)
           (-30.0 30.0)
  end
  begin
     id 17 
     name lclavicle
     direction 0.961094 0.274654 -0.0293862  
     length 3.63466  
     axis 0 0 0   XYZ
    dof ry rz
    limits (-20.0 10.0)
           (0.0 20.0)
  end
  begin
     id 18 
     name lhumerus
     direction 1 -4.48963e-011 1.10303e-027   
     length 5.12842   
     axis 180 -30 -90   XYZ
    dof rx ry rz
    limits (-60.0 90.0)
           (-90.0 90.0)
           (-90.0 90.0)
  end
  begin
     id 19
     name lradius
     direction 1 -4.48968e-011 4.13199e-027   
     length 3.47396   
     axis 180 -30 -90   XYZ
    dof rx
    limits (-10.0 170.0)
  end
  begin
     id 20
     name lwrist
     direction 1 -4.48948e-011 9.12708e-027   
     length 1.73698   
     axis -6.84618e-015 90 90   XYZ
    dof ry
    limits (-180.0 0.0)
 end
  begin
     id 21 
     name lhand
     direction 1 -4.49057e-011 1.82749e-026   
     length 0.728607   
     axis -1.16502e-014 90 90   XYZ
    dof rx rz
    limits (-90.0 90.0)
           (-45.0 45.0)
  end
  begin
     id 22 
     name lfingers
     direction 1 -4.48912e-011 3.64949e-026   
     length 0.587422   
     axis -2.33008e-014 90 90   XYZ
    dof rx
    limits (0.0 90.0)
  end
  begin
     id 23
     name lthumb
     direction 0.707107 -6.34995e-011 0.707107   
     length 0.843424   
     axis -90 45 5.69224e-014   XYZ
    dof rx rz
    limits (-45.0 45.0)
           (-45.0 45.0)
  end
  begin
     id 24 
     name rclavicle
     direction -0.90514 0.421881 -0.0523369   
     length 3.57139  
     axis 0 0 0   XYZ 
    dof ry rz
    limits (-10.0 20.0)
           (-20.0 0.0)
  end
  begin
     id 25 
     name rhumerus
     direction -1 -4.48954e-011 -1.76662e-027  
     length 5.48477   
     axis 180 30 90   XYZ
    dof rx ry rz
    limits (-90.0 60.0)
           (-90.0 90.0)
           (-90.0 90.0)
  end
  begin
     id 26 
     name rradius
     direction -1 -4.48982e-011 1.26841e-027   
     length 3.47856   
     axis 180 30 90   XYZ
    dof rx
    limits (-10.0 170.0)
  end
  begin
     id 27 
     name rwrist
     direction -1 -4.49037e-011 9.13554e-027   
     length 1.73928   
     axis -6.84618e-015 -90 -90   XYZ
    dof ry
    limits (-180.0 0.0)
  end
  begin
     id 28
     name rhand
     direction -1 -4.48871e-011 1.82397e-026   
     length 0.709974   
     axis -1.16502e-014 -90 -90   XYZ
    dof rx rz
    limits (-90.0 90.0)
           (-45.0 45.0)
  end
  begin
     id 29
     name rfingers
     direction -1 -4.48994e-011 3.65258e-026   
     length 0.572399   
     axis -2.33008e-014 -90 -90   XYZ
    dof rx
    limits (0.0 90.0)
  end
  begin
     id 30
     name rthumb
     direction -0.707107 -6.34861e-011 0.707107   
     length 0.821855   
     axis -90 -45 -5.69224e-014   XYZ
    dof rx rz
    limits (-45.0 45.0)
           (-45.0 45.0)
  end
:hierarchy
  begin
    root lhipjoint rhipjoint lowerback
    lhipjoint lfemur
    lfemur ltibia
    ltibia lfoot
    lfoot ltoes
    rhipjoint rfemur
    rfemur rtibia
    rtibia rfoot
    rfoot rtoes
    lowerback upperback
    upperback thorax
    thorax lowerneck lclavicle rclavicle
    lowerneck upperneck
    upperneck head
    lclavicle lhumerus
    lhumerus lradius
    lradius lwrist
    lwrist lhand lthumb
    lhand lfingers
    rclavicle rhumerus
    rhumerus rradius
    rradius rwrist
    rwrist rhand rthumb
    rhand rfingers
  end

#!OML:ASF F:\VICON\USERDATA\INSTALL\Justin1\Justin1.ASF
:FULLY-SPECIFIED
:DEGREES
1871
root -0.0624351 18.1664 -3.66469 3.1106 3.89637 -3.16606
lowerback 0.173434 -1.09447 1.46846
upperback -0.766812 -1.43041 2.55775
thorax -0.853332 -0.715783 1.81071
lowerneck -12.3996 -1.79476 -3.29376
upperneck 16.7175 -1.12495 -3.59733
head 7.18064 -1.07333 -0.736173
rclavicle -2.04624e-014 -5.1684e-015
rhumerus -100.071 35.2916 -114.616
rradius 109.452
rwrist 14.5196
rhand -40.8896 65.508
rfingers 7.12502
rthumb -13.8252 35.9875
lclavicle -2.04624e-014 -5.1684e-015
lhumerus -97.2387 -32.4346 120.587
lradius 104.052
lwrist -16.2387
lhand -33.3602 9.49761
lfingers 7.12502
lthumb -6.56191 39.3759
rfemur -14.3232 7.62892 28.0759
rtibia 33.2384
rfoot -19.1592 -13.2658
rtoes 31.88
lfemur -13.101 -10.6528 -18.3507
ltibia 30.1613
lfoot -18.2452 8.53225
ltoes 7.50687
1872
root -0.0629243 18.1647 -3.67153 3.0714 3.81746 -3.34396
lowerback 0.202592 -1.06756 1.62063
upperback -0.710452 -1.39379 2.62033
thorax -0.814828 -0.698213 1.78926
lowerneck -12.4109 -1.79783 -3.31634
upperneck 16.6438 -1.12905 -3.58496
head 7.15892 -1.0741 -0.728239
rclavicle 3.05631e-015 6.75868e-015
rhumerus -100.047 35.391 -114.576
rradius 109.522
rwrist 14.4663
rhand -40.961 65.3622
rfingers 7.12502
rthumb -13.894 35.8463
lclavicle 3.05631e-015 6.75868e-015
lhumerus -97.1269 -32.494 120.496
lradius 104.049
lwrist -16.3076
lhand -33.4671 9.6495
lfingers 7.12502
lthumb -6.66511 39.5246
rfemur -14.3187 7.71756 28.2699
rtibia 33.2163
rfoot -19.1631 -13.244
rtoes 32.0541
lfemur -13.1254 -10.5653 -18.1573
ltibia 30.2063
lfoot -18.241 8.55435
ltoes 7.38935
1873
root -0.0612993 18.1632 -3.67325 3.0208 3.78715 -3.38173
lowerback 0.217675 -1.05567 1.67659
upperback -0.671516 -1.37821 2.63041
thorax -0.784772 -0.690679 1.7679
lowerneck -12.4471 -1.80387 -3.35791
upperneck 16.6837 -1.13454 -3.53632
head 7.17891 -1.07612 -0.706976
rclavicle 1.03741e-014 -2.78299e-014
rhumerus -100.062 35.4068 -114.578
rradius 109.522
rwrist 14.5332
rhand -41.0609 65.3162
rfingers 7.12502
rthumb -13.9903 35.807
lclavicle 1.03741e-014 -2.78299e-014
lhumerus -97.1127 -32.5386 120.504
lradius 104.029
lwrist -16.2551
lhand -33.5264 9.82096
lfingers 7.12502
lthumb -6.72238 39.6943
rfemur -14.2613 7.71512 28.3095
rtibia 33.1984
rfoot -19.1213 -13.2381
rtoes 31.8275
lfemur -13.1071 -10.4988 -18.1291
ltibia 30.2576
lfoot -18.3006 8.52939
ltoes 7.45415
1874
root -0.0593735 18.1635 -3.67564 3.0633 3.80539 -3.30626
lowerback 0.211907 -1.06339 1.63035
upperback -0.707209 -1.38806 2.60507
thorax -0.817441 -0.695456 1.76824
lowerneck -12.4017 -1.78908 -3.32566
upperneck 16.6986 -1.11614 -3.57121
head 7.17534 -1.06835 -0.721427
rclavicle 9.46712e-015 -2.0276e-014
rhumerus -100.149 35.3772 -114.641
rradius 109.487
rwrist 14.6525
rhand -41.2281 65.4073
rfingers 7.12502
rthumb -14.1515 35.9093
lclavicle 9.46712e-015 -2.0276e-014
lhumerus -97.2014 -32.5355 120.559
lradius 104.011
lwrist -16.2908
lhand -33.6311 9.97601
lfingers 7.12502
lthumb -6.8235 39.8461
rfemur -14.2813 7.68166 28.2148
rtibia 33.1685
rfoot -19.1177 -13.2095
rtoes 31.8663
lfemur -13.1719 -10.5047 -18.2137
ltibia 30.3254
lfoot -18.3067 8.52745
ltoes 7.36986
1875
root -0.0574376 18.1644 -3.68217 3.11661 3.77891 -3.37728
lowerback 0.218769 -1.05593 1.72829
upperback -0.742211 -1.37591 2.62288
thorax -0.859305 -0.690023 1.73224
lowerneck -12.3312 -1.78405 -3.28585
upperneck 16.6481 -1.11221 -3.62849
head 7.14587 -1.06742 -0.744871
rclavicle -1.62755e-015 1.27222e-014
rhumerus -100.177 35.3772 -114.638
rradius 109.481
rwrist 14.7308
rhand -41.2681 65.4645
rfingers 7.12502
rthumb -14.19 35.9691
lclavicle -1.62755e-015 1.27222e-014
lhumerus -97.294 -32.5536 120.591
lradius 104.04
lwrist -16.3593
lhand -33.7177 10.1418
lfingers 7.12502
lthumb -6.90704 40.0091
rfemur -14.3611 7.66205 28.2748
rtibia 33.1443
rfoot -19.0173 -13.229
rtoes 31.69
lfemur -13.2724 -10.5225 -18.134
ltibia 30.3753
lfoot -18.2631 8.59787
ltoes 7.25549
1876
root -0.0553531 18.1645 -3.68874 3.12875 3.74069 -3.52766
lowerback 0.229272 -1.0599 1.91522
upperback -0.750195 -1.37887 2.6618
thorax -0.876879 -0.692654 1.66794
lowerneck -12.2731 -1.76892 -3.3152
upperneck 16.6146 -1.09593 -3.59593
head 7.12522 -1.05732 -0.726928
rclavicle -8.97016e-015 9.54166e-015
rhumerus -100.195 35.4019 -114.601
rradius 109.51
rwrist 14.8169
rhand -41.2126 65.5594
rfingers 7.12502
rthumb -14.1365 36.0603
lclavicle -8.97016e-015 9.54166e-015
lhumerus -97.332 -32.5702 120.636
lradius 104.034
lwrist -16.2542
lhand -33.6005 10.1875
lfingers 7.12502
lthumb -6.79397 40.0585
rfemur -14.412 7.67661 28.4268
rtibia 33.1233
rfoot -18.9052 -13.2549
rtoes 31.5022
lfemur -13.3599 -10.5413 -17.9613
ltibia 30.4316
lfoot -18.3004 8.63288
ltoes 7.32563
1877
root -0.0551052 18.1635 -3.69337 3.11339 3.76806 -3.60267
lowerback 0.278822 -1.0885 1.98618
upperback -0.782895 -1.41319 2.6971
thorax -0.938572 -0.710386 1.66641
lowerneck -12.1927 -1.75383 -3.35157
upperneck 16.6369 -1.07683 -3.56651
head 7.11888 -1.04762 -0.708917
rclavicle 4.01297e-015 -9.14409e-015
rhumerus -100.302 35.416 -114.636
rradius 109.495
rwrist 14.9379
rhand -41.1697 65.413
rfingers 7.12502
rthumb -14.0952 35.911
lclavicle 4.01297e-015 -9.14409e-015
lhumerus -97.4602 -32.5213 120.748
lradius 103.999
lwrist -16.0575
lhand -33.308 9.9108
lfingers 7.12502
lthumb -6.5116 39.7907
rfemur -14.4156 7.69587 28.51
rtibia 33.1035
rfoot -18.8496 -13.3192
rtoes 31.3399
lfemur -13.4119 -10.5481 -17.8713
ltibia 30.4759
lfoot -18.3329 8.61957
ltoes 7.319
1878
root -0.0543735 18.1625 -3.69672 3.11853 3.76916 -3.59675
lowerback 0.305964 -1.10841 1.9931
upperback -0.828914 -1.43719 2.68109
thorax -1.00122 -0.722746 1.64767
lowerneck -12.0859 -1.7396 -3.25838
upperneck 16.6441 -1.07108 -3.62151
head 7.10116 -1.04319 -0.740363
rclavicle 9.47954e-015 4.49253e-014
rhumerus -100.442 35.3904 -114.731
rradius 109.473
rwrist 15.0452
rhand -41.2275 65.3071
rfingers 7.12502
rthumb -14.1508 35.809
lclavicle 9.47954e-015 4.49253e-014
lhumerus -97.6005 -32.4443 120.77
lradius 103.978
lwrist -16.0445
lhand -33.2889 9.90397
lfingers 7.12502
lthumb -6.49314 39.7844
rfemur -14.4281 7.7289 28.4921
rtibia 33.0967
rfoot -18.8753 -13.2776
rtoes 31.6576
lfemur -13.4377 -10.5605 -17.878
ltibia 30.5005
lfoot -18.3391 8.60957
ltoes 7.33512
1879
root -0.0528091 18.1626 -3.69639 3.09051 3.74176 -3.56475
lowerback 0.296188 -1.1074 1.98917
upperback -0.814735 -1.43696 2.65671
thorax -0.98171 -0.722626 1.62439
lowerneck -12.0349 -1.73835 -3.23066
upperneck 16.6003 -1.07907 -3.62185
head 7.07758 -1.04394 -0.744781
rclavicle -1.26353e-014 2.5842e-014
rhumerus -100.463 35.4383 -114.741
rradius 109.464
rwrist 14.9839
rhand -41.0707 65.491
rfingers 7.12502
rthumb -13.9997 35.9825
lclavicle -1.26353e-014 2.5842e-014
lhumerus -97.6365 -32.4526 120.715
lradius 103.997
lwrist -16.0836
lhand -33.329 10.0272
lfingers 7.12502
lthumb -6.53187 39.9065
rfemur -14.3894 7.72983 28.4538
rtibia 33.1084
rfoot -18.9197 -13.2332
rtoes 31.7582
lfemur -13.3888 -10.5635 -17.9369
ltibia 30.5085
lfoot -18.3195 8.69198
ltoes 7.2226
1880
root -0.051128 18.1623 -3.69615 3.07883 3.72527 -3.49468
lowerback 0.271144 -1.09278 1.95885
upperback -0.798094 -1.41957 2.61575
thorax -0.951092 -0.713754 1.59828
lowerneck -12.0249 -1.74076 -3.2095
upperneck 16.5981 -1.08974 -3.60732
head 7.07484 -1.04628 -0.74442
rclavicle -2.73826e-014 1.63003e-014
rhumerus -100.446 35.4514 -114.728
rradius 109.456
rwrist 14.9989
rhand -41.09 65.4493
rfingers 7.12502
rthumb -14.0184 35.942
lclavicle -2.73826e-014 1.63003e-014
lhumerus -97.6523 -32.5536 120.663
lradius 104.012
lwrist -16.2213
lhand -33.4633 10.2337
lfingers 7.12502
lthumb -6.66143 40.1089
rfemur -14.3685 7.68959 28.3757
rtibia 33.133
rfoot -18.9314 -13.199
rtoes 31.5341
lfemur -13.3658 -10.591 -18.026
ltibia 30.5193
lfoot -18.3661 8.69319
ltoes 7.50194
1881
root -0.0512289 18.1623 -3.70017 3.10254 3.70461 -3.48232
lowerback 0.26742 -1.0961 1.94556
upperback -0.795061 -1.42436 2.61663
thorax -0.945477 -0.716032 1.60654
lowerneck -12.0715 -1.73566 -3.23199
upperneck 16.6293 -1.08088 -3.57441
head 7.09354 -1.04159 -0.730033
rclavicle -7.56624e-015 3.97569e-015
rhumerus -100.467 35.5323 -114.761
rradius 109.364
rwrist 15.1102
rhand -41.1258 65.3293
rfingers 7.12502
rthumb -14.0529 35.8244
lclavicle -7.56624e-015 3.97569e-015
lhumerus -97.557 -32.6436 120.533
lradius 104
lwrist -16.4675
lhand -33.785 10.5451
lfingers 7.12502
lthumb -6.97206 40.4103
rfemur -14.4227 7.72538 28.3582
rtibia 33.1577
rfoot -18.992 -13.1685
rtoes 31.9423
lfemur -13.4184 -10.5798 -18.0265
ltibia 30.5241
lfoot -18.3664 8.65074
ltoes 7.84595
1882
root -0.0521631 18.1596 -3.7047 3.13441 3.70202 -3.50618
lowerback 0.240763 -1.09985 1.93562
upperback -0.789363 -1.43046 2.63821
thorax -0.923814 -0.718867 1.63365
lowerneck -12.0799 -1.74577 -3.22227
upperneck 16.5919 -1.09537 -3.58691
head 7.08267 -1.04833 -0.736795
rclavicle -1.07468e-014 2.0276e-014
rhumerus -100.468 35.5861 -114.742
rradius 109.315
rwrist 15.1097
rhand -41.0477 65.3836
rfingers 7.12502
rthumb -13.9776 35.8735
lclavicle -1.07468e-014 2.0276e-014
lhumerus -97.4796 -32.7331 120.476
lradius 103.978
lwrist -16.5419
lhand -33.9298 10.7247
lfingers 7.12502
lthumb -7.11179 40.5852
rfemur -14.4914 7.76534 28.3827
rtibia 33.1707
rfoot -18.9887 -13.1949
rtoes 32.183
lfemur -13.4888 -10.5755 -17.9835
ltibia 30.5355
lfoot -18.3382 8.65594
ltoes 7.66412
